<svg width="338" height="90" xmlns="http://www.w3.org/2000/svg" class="iconLeft">
 <!---->

 <!---->
 <!---->
 <!---->
 <!---->
 <g>
  <title>background</title>
  <rect fill="none" id="canvas_background" height="602" width="802" y="-1" x="-1"/>
 </g>
 <g>
  <title>Layer 1</title>
  <g transform="matrix(4.815409295048693,0,0,4.815409295048693,106.91814141728,13.314604843785311) " fill="white" id="371f0c31-d9ee-4cac-9409-5ecdfcfd20bb">
   <path id="svg_1" d="m2.31767,0.98c-0.81,0 -1.47,0.66 -1.47,1.47c0,0.81 0.66,1.47 1.47,1.47c0.82,0 1.47,-0.66 1.47,-1.47c0,-0.81 -0.65,-1.47 -1.47,-1.47zm-1.27,4.44l2.48,0l0,7.18l-2.48,0l0,-7.18zm4.65,0l-1.04,0l0,1.89l1.04,0l0,5.29l2.48,0l0,-5.29l1.65,0l0,-1.89l-1.65,0l0,-1.46c0,-0.99 0.14,-1.41 0.77,-1.41c0.4,0 0.74,0.19 0.74,0.19l0.87,-1.75c0,0 -0.79,-0.64 -2.05,-0.64c-1.79,0 -2.8,1.44 -2.81,3.54l0,1.53zm4.83,7.18l2.48,0l0,-3.78c0,-0.18 0.18,-1.46 1.47,-1.46c0.82,0 1.28,0.4 1.28,0.4l1.04,-2.1c0,0 -0.64,-0.45 -1.57,-0.45c-1.41,0 -2.2,1.24 -2.2,1.24l-0.02,0l0,-1.03l-2.48,0l0,7.18zm6.34,-3.58c0,2.1 1.47,3.79 3.57,3.79c0.98,0 1.82,-0.43 2.35,-1.02l0.03,0l0,0.81l2.45,0l0,-7.18l-2.48,0l0,0.68c-0.59,-0.57 -1.38,-0.89 -2.35,-0.89c-2.1,0 -3.57,1.71 -3.57,3.81zm2.63,0c0,-1 0.74,-1.7 1.68,-1.7c0.93,0 1.67,0.7 1.67,1.7c0,0.98 -0.7,1.68 -1.67,1.68c-1.01,0 -1.68,-0.7 -1.68,-1.68zm7.45,3.58l2.48,0l0,-4.2c0,-0.57 0.32,-1.2 1.15,-1.2c0.88,0 1.26,0.63 1.26,1.34l0,4.06l2.47,0l0,-4.28c0.03,-0.55 0.37,-1.12 1.15,-1.12c0.88,0 1.26,0.63 1.26,1.34l0,4.06l2.48,0l0,-4.73c0,-2 -1.48,-2.66 -2.8,-2.66c-0.78,0 -1.62,0.4 -2.38,1.31c-0.5,-0.96 -1.55,-1.31 -2.51,-1.31c-0.78,0 -1.49,0.4 -2.05,0.96l-0.03,0l0,-0.75l-2.48,0l0,7.18zm21.06,-3.25c0.01,-0.08 0.01,-0.24 0.01,-0.33c0,-2.52 -1.67,-3.81 -3.85,-3.81c-2.17,0 -3.95,1.71 -3.95,3.81c0,2.08 1.78,3.79 3.95,3.79c1.6,0 2.91,-0.52 3.72,-1.88l-1.79,-0.89c-0.6,0.64 -0.95,0.8 -1.75,0.8c-0.63,0 -1.55,-0.38 -1.55,-1.49l5.21,0zm-5.14,-1.37c0.04,-0.66 0.52,-1.16 1.37,-1.16c0.73,0 1.25,0.4 1.36,1.16l-2.73,0z"/>
  </g>
  <g fill="#C8DA29" transform="matrix(1.25,0,0,1.25,-17.5,-17.5) " id="6244abee-f141-4fc3-bfa2-1b6665d12158">
   <path id="svg_2" d="m47,14l-23,0c-5.5,0 -10,4.5 -10,10l0,24l33,0l0,-34zm39,34l0,-24c0,-5.5 -4.5,-10 -10,-10l-25,0l0,34l35,0zm-72,4l0,24c0,5.5 4.5,10 10,10l23,0l0,-34l-33,0zm37,34l25,0c5.5,0 10,-4.5 10,-10l0,-24l-35,0l0,34z"/>
  </g>
 </g>
</svg>