<svg data-v-423bf9ae="" xmlns="http://www.w3.org/2000/svg" viewBox="0 0 338 90" class="iconLeft"><!----><!----><!----><g data-v-423bf9ae="" id="371f0c31-d9ee-4cac-9409-5ecdfcfd20bb" fill="#2B2B4F" transform="matrix(4.815409295048693,0,0,4.815409295048693,106.91814141728,13.314604843785311)"><path d="M2.11 0.98C1.30 0.98 0.64 1.64 0.64 2.45C0.64 3.26 1.30 3.92 2.11 3.92C2.93 3.92 3.58 3.26 3.58 2.45C3.58 1.64 2.93 0.98 2.11 0.98ZM0.84 5.42L3.32 5.42L3.32 12.60L0.84 12.60ZM5.49 5.42L4.45 5.42L4.45 7.31L5.49 7.31L5.49 12.60L7.97 12.60L7.97 7.31L9.62 7.31L9.62 5.42L7.97 5.42L7.97 3.96C7.97 2.97 8.11 2.55 8.74 2.55C9.14 2.55 9.48 2.74 9.48 2.74L10.35 0.99C10.35 0.99 9.56 0.35 8.30 0.35C6.51 0.35 5.50 1.79 5.49 3.89ZM10.32 12.60L12.80 12.60L12.80 8.82C12.80 8.64 12.98 7.36 14.27 7.36C15.09 7.36 15.55 7.76 15.55 7.76L16.59 5.66C16.59 5.66 15.95 5.21 15.02 5.21C13.61 5.21 12.82 6.45 12.82 6.45L12.80 6.45L12.80 5.42L10.32 5.42ZM16.66 9.02C16.66 11.12 18.13 12.81 20.23 12.81C21.21 12.81 22.05 12.38 22.58 11.79L22.61 11.79L22.61 12.60L25.06 12.60L25.06 5.42L22.58 5.42L22.58 6.10C21.99 5.53 21.20 5.21 20.23 5.21C18.13 5.21 16.66 6.92 16.66 9.02ZM19.29 9.02C19.29 8.02 20.03 7.32 20.97 7.32C21.90 7.32 22.64 8.02 22.64 9.02C22.64 10.00 21.94 10.70 20.97 10.70C19.96 10.70 19.29 10.00 19.29 9.02ZM26.74 12.60L29.22 12.60L29.22 8.40C29.22 7.83 29.54 7.20 30.37 7.20C31.25 7.20 31.63 7.83 31.63 8.54L31.63 12.60L34.10 12.60L34.10 8.32C34.13 7.77 34.47 7.20 35.25 7.20C36.13 7.20 36.51 7.83 36.51 8.54L36.51 12.60L38.99 12.60L38.99 7.87C38.99 5.87 37.51 5.21 36.19 5.21C35.41 5.21 34.57 5.61 33.81 6.52C33.31 5.56 32.26 5.21 31.30 5.21C30.52 5.21 29.81 5.61 29.25 6.17L29.22 6.17L29.22 5.42L26.74 5.42ZM47.80 9.35C47.81 9.27 47.81 9.11 47.81 9.02C47.81 6.50 46.14 5.21 43.96 5.21C41.79 5.21 40.01 6.92 40.01 9.02C40.01 11.10 41.79 12.81 43.96 12.81C45.56 12.81 46.87 12.29 47.68 10.93L45.89 10.04C45.29 10.68 44.94 10.84 44.14 10.84C43.51 10.84 42.59 10.46 42.59 9.35ZM42.66 7.98C42.70 7.32 43.18 6.82 44.03 6.82C44.76 6.82 45.28 7.22 45.39 7.98Z"></path></g><!----><g data-v-423bf9ae="" id="6244abee-f141-4fc3-bfa2-1b6665d12158" transform="matrix(1.25,0,0,1.25,-17.5,-17.5)" stroke="none" fill="#C8DA29"><path d="M47 14H24c-5.5 0-10 4.5-10 10v24h33V14zM86 48V24c0-5.5-4.5-10-10-10H51v34h35zM14 52v24c0 5.5 4.5 10 10 10h23V52H14zM51 86h25c5.5 0 10-4.5 10-10V52H51v34z"></path></g><!----></svg>